<svg width="100" height="100" viewBox="0 0 100 100" fill="none" xmlns="http://www.w3.org/2000/svg">
<path d="M50.0163 0C29.1418 0 23.0368 0.0215403 21.8501 0.12001C17.5663 0.476194 14.9006 1.15087 11.9965 2.59714C9.75851 3.70878 7.99345 4.99735 6.25147 6.80365C3.07899 10.0978 1.15628 14.1504 0.460255 18.9678C0.121857 21.3064 0.0234144 21.7834 0.00341816 33.729C-0.0042727 37.7109 0.00341816 42.9513 0.00341816 49.9804C0.00341816 70.8437 0.0264908 76.9442 0.126472 78.1289C0.472561 82.2985 1.12628 84.9218 2.51064 87.7913C5.1563 93.2841 10.2092 97.4075 16.1619 98.9461C18.2231 99.4769 20.4996 99.7692 23.4221 99.9077C24.6603 99.9615 37.281 100 49.9094 100C62.5378 100 75.1662 99.9846 76.3737 99.9231C79.7577 99.7638 81.7227 99.5 83.8953 98.9384C86.8469 98.1812 89.5977 96.7887 91.9556 94.8581C94.3135 92.9274 96.2216 90.5052 97.5466 87.7605C98.9041 84.9603 99.5924 82.237 99.9039 78.2851C99.9715 77.4235 100 63.6862 100 49.9673C100 36.2461 99.9692 22.5342 99.9016 21.6726C99.5862 17.6569 98.8979 14.9567 97.4966 12.1026C96.3468 9.76621 95.0702 8.02145 93.2167 6.23745C89.9096 3.07718 85.8642 1.15394 81.0428 0.4585C78.7071 0.120779 78.2418 0.020771 66.2902 0H50.0163Z" fill="url(#paint0_radial_7_11)"/>
<path d="M50.0163 0C29.1418 0 23.0368 0.0215403 21.8501 0.12001C17.5663 0.476194 14.9006 1.15087 11.9965 2.59714C9.75851 3.70878 7.99345 4.99735 6.25147 6.80365C3.07899 10.0978 1.15628 14.1504 0.460255 18.9678C0.121857 21.3064 0.0234144 21.7834 0.00341816 33.729C-0.0042727 37.7109 0.00341816 42.9513 0.00341816 49.9804C0.00341816 70.8437 0.0264908 76.9442 0.126472 78.1289C0.472561 82.2985 1.12628 84.9218 2.51064 87.7913C5.1563 93.2841 10.2092 97.4075 16.1619 98.9461C18.2231 99.4769 20.4996 99.7692 23.4221 99.9077C24.6603 99.9615 37.281 100 49.9094 100C62.5378 100 75.1662 99.9846 76.3737 99.9231C79.7577 99.7638 81.7227 99.5 83.8953 98.9384C86.8469 98.1812 89.5977 96.7887 91.9556 94.8581C94.3135 92.9274 96.2216 90.5052 97.5466 87.7605C98.9041 84.9603 99.5924 82.237 99.9039 78.2851C99.9715 77.4235 100 63.6862 100 49.9673C100 36.2461 99.9692 22.5342 99.9016 21.6726C99.5862 17.6569 98.8979 14.9567 97.4966 12.1026C96.3468 9.76621 95.0702 8.02145 93.2167 6.23745C89.9096 3.07718 85.8642 1.15394 81.0428 0.4585C78.7071 0.120779 78.2418 0.020771 66.2902 0H50.0163Z" fill="url(#paint1_radial_7_11)"/>
<path d="M49.9933 13.078C39.9675 13.078 38.7092 13.1219 34.7715 13.3011C30.8415 13.4811 28.1589 14.1035 25.8117 15.0167C23.3837 15.9598 21.324 17.2215 19.2721 19.2747C17.2187 21.3272 15.9574 23.3874 15.0114 25.8153C14.0962 28.1639 13.4732 30.848 13.2963 34.7776C13.121 38.7164 13.0748 39.9757 13.0748 50.0042C13.0748 60.0328 13.1194 61.2875 13.2979 65.2263C13.4786 69.1574 14.1008 71.8407 15.0129 74.1886C15.9566 76.6173 17.2179 78.6774 19.2706 80.7299C21.3217 82.7839 23.3814 84.0487 25.8078 84.9918C28.1566 85.905 30.84 86.5273 34.7692 86.7073C38.7069 86.8866 39.9644 86.9304 49.9894 86.9304C60.016 86.9304 61.2704 86.8866 65.2081 86.7073C69.1381 86.5273 71.8238 85.905 74.1726 84.9918C76.5998 84.0487 78.6563 82.7839 80.7075 80.7299C82.761 78.6774 84.0223 76.6173 84.9682 74.1894C85.8758 71.8407 86.4987 69.1566 86.6833 65.2271C86.8602 61.2883 86.9063 60.0328 86.9063 50.0042C86.9063 39.9757 86.8602 38.7171 86.6833 34.7783C86.4987 30.8472 85.8758 28.1639 84.9682 25.816C84.0223 23.3874 82.761 21.3272 80.7075 19.2747C78.654 17.2207 76.6006 15.959 74.1703 15.0167C71.8169 14.1035 69.1328 13.4811 65.2027 13.3011C61.265 13.1219 60.0114 13.078 49.9825 13.078H49.9933ZM46.6816 19.7324C47.6645 19.7309 48.7612 19.7324 49.9933 19.7324C59.8499 19.7324 61.0181 19.7678 64.9105 19.9448C68.5098 20.1094 70.4633 20.711 71.7646 21.2164C73.4873 21.8857 74.7156 22.6858 76.0068 23.9782C77.2989 25.2706 78.0988 26.5015 78.7694 28.2247C79.2747 29.5248 79.8769 31.4788 80.0407 35.0791C80.2176 38.9718 80.256 40.1411 80.256 49.9958C80.256 59.8505 80.2176 61.0198 80.0407 64.9124C79.8761 68.5127 79.2747 70.4667 78.7694 71.7668C78.1003 73.4901 77.2989 74.7171 76.0068 76.0087C74.7148 77.3012 73.4881 78.1012 71.7646 78.7705C70.4648 79.2782 68.5098 79.8783 64.9105 80.0429C61.0189 80.2199 59.8499 80.2583 49.9933 80.2583C40.1359 80.2583 38.9677 80.2199 35.0761 80.0429C31.4768 79.8768 29.5233 79.2752 28.2212 78.7697C26.4985 78.1005 25.2679 77.3004 23.9759 76.008C22.6838 74.7156 21.8839 73.4878 21.2133 71.7638C20.708 70.4637 20.1058 68.5096 19.942 64.9093C19.7651 61.0167 19.7297 59.8474 19.7297 49.9865C19.7297 40.1257 19.7651 38.9625 19.942 35.0699C20.1066 31.4696 20.708 29.5156 21.2133 28.2139C21.8824 26.4907 22.6838 25.2598 23.9759 23.9674C25.2679 22.675 26.4985 21.8749 28.2212 21.2041C29.5225 20.6964 31.4768 20.0963 35.0761 19.9309C38.4816 19.7771 39.8013 19.7309 46.6816 19.7232V19.7324ZM69.6988 25.8637C68.8226 25.8637 67.966 26.1237 67.2375 26.6106C66.509 27.0976 65.9412 27.7897 65.6059 28.5995C65.2707 29.4093 65.183 30.3003 65.3541 31.1599C65.5251 32.0195 65.9472 32.8091 66.5669 33.4287C67.1866 34.0484 67.9761 34.4703 68.8355 34.6411C69.6949 34.8119 70.5857 34.7239 71.3951 34.3883C72.2046 34.0527 72.8963 33.4845 73.3829 32.7556C73.8695 32.0267 74.129 31.1698 74.1287 30.2933C74.1287 27.847 72.1445 25.8622 69.6988 25.8622V25.8637ZM49.9933 31.0411C39.5237 31.0411 31.0353 39.5318 31.0353 50.0042C31.0353 60.4767 39.5237 68.9635 49.9933 68.9635C60.4628 68.9635 68.9489 60.4767 68.9489 50.0042C68.9489 39.5318 60.4628 31.0411 49.9933 31.0411ZM49.9933 37.6955C56.7889 37.6955 62.2987 43.206 62.2987 50.0042C62.2987 56.8017 56.7889 62.313 49.9933 62.313C43.1969 62.313 37.6879 56.8017 37.6879 50.0042C37.6879 43.206 43.1969 37.6955 49.9933 37.6955Z" fill="white"/>
<defs>
<radialGradient id="paint0_radial_7_11" cx="0" cy="0" r="1" gradientUnits="userSpaceOnUse" gradientTransform="translate(26.5626 107.702) rotate(-90) scale(99.1074 92.1777)">
<stop stop-color="#FFDD55"/>
<stop offset="0.1" stop-color="#FFDD55"/>
<stop offset="0.5" stop-color="#FF543E"/>
<stop offset="1" stop-color="#C837AB"/>
</radialGradient>
<radialGradient id="paint1_radial_7_11" cx="0" cy="0" r="1" gradientUnits="userSpaceOnUse" gradientTransform="translate(-16.7505 7.20383) rotate(78.6806) scale(44.3014 182.612)">
<stop stop-color="#3771C8"/>
<stop offset="0.128" stop-color="#3771C8"/>
<stop offset="1" stop-color="#6600FF" stop-opacity="0"/>
</radialGradient>
</defs>
</svg>
