<svg width="100" height="100" viewBox="0 0 100 100" fill="none" xmlns="http://www.w3.org/2000/svg">
<g clip-path="url(#clip0_5_10)">
<path d="M99.9512 0H0V99.9512H99.9512V0Z" fill="white"/>
<mask id="mask0_5_10" style="mask-type:luminance" maskUnits="userSpaceOnUse" x="0" y="0" width="100" height="100">
<path d="M99.9512 0H0V99.9512H99.9512V0Z" fill="white"/>
</mask>
<g mask="url(#mask0_5_10)">
<path d="M0 50V100H50H100V50V0H50H0V50ZM54.8032 15.3543C65.2362 16.3583 73.563 21.811 77.8347 30.4527C79.5275 33.8583 80.3149 37.3622 80.3149 41.437C80.3149 50.748 77.2245 59.4488 71.9489 64.941C69.2716 67.7362 66.7324 69.4291 63.4843 70.5905C57.0867 72.8741 50.4527 71.9881 46.693 68.3464C46.0433 67.7362 45.4331 67.0473 45.3149 66.8308C45.1969 66.6142 45.0788 66.4764 45.0196 66.5354C44.9804 66.5944 44.2914 69.1536 43.5039 72.2441C41.8307 78.8387 41.3779 80.3741 40.3149 82.7559C39.2914 85.0984 37.4606 88.189 37.1063 88.189C36.752 88.189 33.307 86.9488 32.4804 86.5158L31.8307 86.1811L31.9488 82.9133C32.0079 81.1023 32.2047 78.8189 32.3818 77.8543C32.559 76.8701 34.0158 70.5512 35.6102 63.7795C38.3662 52.1851 38.504 51.4567 38.248 50.8268C37.1261 48.1299 36.811 43.3858 37.5788 40.4921C38.8977 35.5119 42.3818 32.4016 46.3583 32.7165C49.3307 32.9725 51.1811 34.7835 51.7716 37.9921C52.1653 40.1378 51.6732 42.8347 49.7047 49.252C47.6378 56.0433 47.4212 57.5394 48.2284 59.7047C48.7599 61.1417 50.1969 62.6378 51.7126 63.3464C53.307 64.0748 55.9056 64.193 57.8347 63.6023C63.9567 61.752 68.2874 53.8977 69.1338 43.1496C69.6653 36.3385 68.248 31.7716 64.3898 27.9527C61.0236 24.6259 56.5354 23.0315 50.5906 23.0315C43.937 23.0315 38.4056 25.2756 34.252 29.6653C30.9449 33.1693 29.0944 37.2835 28.5433 42.4212C28.0709 46.7126 28.996 50.2559 31.3387 53.2284C32.2441 54.3898 32.2638 54.7835 31.5944 57.5394C30.9842 59.9804 30.807 60.3347 30.1182 60.6299C29.0354 61.0827 26.1811 59.4881 24.193 57.3425C19.7441 52.4804 18.3464 43.6417 20.7874 35.748C22.6182 29.8622 26.811 24.3504 32.1851 20.7676C38.4449 16.5944 46.7716 14.6063 54.8032 15.3543Z" fill="#C52228"/>
</g>
</g>
<defs>
<clipPath id="clip0_5_10">
<rect width="100" height="100" rx="24" fill="white"/>
</clipPath>
</defs>
</svg>
