<svg width="100" height="100" viewBox="0 0 100 100" fill="none" xmlns="http://www.w3.org/2000/svg">
<g clip-path="url(#clip0_5_35)">
<path d="M85 0H15C6.71573 0 0 6.71573 0 15V85C0 93.2843 6.71573 100 15 100H85C93.2843 100 100 93.2843 100 85V15C100 6.71573 93.2843 0 85 0Z" fill="#FF8800"/>
<path d="M28.3203 78.5156C32.0957 78.5156 35.1562 75.4551 35.1562 71.6797C35.1562 67.9043 32.0957 64.8438 28.3203 64.8438C24.5449 64.8438 21.4844 67.9043 21.4844 71.6797C21.4844 75.4551 24.5449 78.5156 28.3203 78.5156Z" fill="white"/>
<path d="M21.2891 47.0703C38.6719 47.0703 52.9297 61.3281 52.9297 78.7109M21.2891 24.8047C50.9766 24.8047 75.1953 49.0234 75.1953 78.7109" stroke="white" stroke-width="12"/>
</g>
<defs>
<clipPath id="clip0_5_35">
<rect width="100" height="100" fill="white"/>
</clipPath>
</defs>
</svg>
