<svg width="100" height="100" viewBox="0 0 100 100" fill="none" xmlns="http://www.w3.org/2000/svg">
<g clip-path="url(#clip0_5_31)">
<path d="M-7.62939e-06 50V76C-7.62939e-06 89.2548 10.7452 100 24 100H50H76C89.2548 100 100 89.2548 100 76V50V24C100 10.7452 89.2548 0 76 0H50H24C10.7452 0 -7.62939e-06 10.7452 -7.62939e-06 24V50ZM63.2 13.3333C64.2222 20.6222 70.5778 27.2 77.8667 28.4889V28.4889C79.6146 28.7973 80.8889 30.3162 80.8889 32.0911V35.4667V38.8771C80.8889 40.5078 79.491 41.7878 77.8667 41.6444V41.6444C73.2889 41.2 67.7778 39.3778 64.8 37.2889C64.1778 36.8 63.5555 36.4444 63.4222 36.4444C63.2889 36.4444 63.1111 43.3778 63.0222 51.8667C62.8444 66.8444 62.8 67.4222 61.8222 70C60.2667 74 57.1555 78.3556 54.3111 80.6222C44.8 88.2222 32.3111 88 23.5111 80.0444C12.9778 70.6222 12.8 54.4889 23.0667 44.8889C27.4667 40.7556 32.6667 38.6667 38.7556 38.6667H38.9182C40.7421 38.6667 42.268 40.0514 42.4444 41.8667V41.8667C42.5778 43.6444 42.6667 46.6222 42.5778 48.4444L42.5352 49.509C42.4853 50.7551 41.4227 51.7177 40.1778 51.6444V51.6444C35.7333 51.3333 32 53.2889 29.7778 57.0222C28.8444 58.5778 28.6667 59.4667 28.6667 62.2222C28.6667 65.0667 28.8444 65.8667 29.9111 67.6444C32.2222 71.6 36.9778 73.8222 41.1555 72.8889C44.0444 72.2222 45.4667 71.4222 47.2889 69.2444C50.2222 65.8222 50.2222 65.9111 50.2222 36.8V16.9347C50.2222 13.4702 53.0696 10.6824 56.5333 10.7556V10.7556L60.4253 10.8372C61.8408 10.8669 63.0212 11.9288 63.2 13.3333V13.3333Z" fill="black"/>
</g>
<defs>
<clipPath id="clip0_5_31">
<rect width="100" height="100" fill="white"/>
</clipPath>
</defs>
</svg>
