<svg width="100" height="100" viewBox="0 0 100 100" fill="none" xmlns="http://www.w3.org/2000/svg">
<rect width="100" height="100" rx="24" fill="#FF0000"/>
<path d="M83.5375 32.8075C82.7324 29.7344 80.3606 27.3141 77.3484 26.4927C71.8899 25 50 25 50 25C50 25 28.1104 25 22.6516 26.4927C19.6394 27.3141 17.2671 29.7344 16.4625 32.8075C15 38.3778 15 50 15 50C15 50 15 61.6216 16.4625 67.1925C17.2671 70.2659 19.6394 72.6856 22.6513 73.5079C28.1101 75 49.9997 75 49.9997 75C49.9997 75 71.8896 75 77.3481 73.5079C80.3603 72.6859 82.732 70.2659 83.5372 67.1928C85 61.6219 85 50.0003 85 50.0003C85 50.0003 85 38.3781 83.5372 32.8078" fill="white"/>
<path d="M42.8409 60.5519L61.1363 50.0006L42.8409 39.448V60.5519Z" fill="#FF0000"/>
</svg>
