<svg width="100" height="100" viewBox="0 0 100 100" fill="none" xmlns="http://www.w3.org/2000/svg">
<g clip-path="url(#clip0_1_209)">
<rect width="100" height="100" fill="#005DAD"/>
<path fill-rule="evenodd" clip-rule="evenodd" d="M27.0798 46.2336C28.8377 46.2336 30.2577 47.5864 30.2577 49.2541V52.0108C30.2577 53.6754 28.8377 55.0297 27.0798 55.0297H24.1763C22.4246 55.0297 21 53.6754 21 52.0108V49.2541C21 47.5864 22.4246 46.2336 24.1763 46.2336H27.0798ZM41.3337 38.7127C43.5257 38.7127 45.3022 40.4037 45.3022 42.4856V47.0915C45.3022 49.1734 43.5257 50.8659 41.3337 50.8659H36.4817C34.2897 50.8659 32.5116 49.1734 32.5116 47.0915V42.4856C32.5116 40.4037 34.2897 38.7127 36.4817 38.7127H41.3337ZM75.0269 16.6667C77.2219 16.6667 79 18.3576 79 20.4426V41.1933C79 43.2768 77.2219 44.9646 75.0269 44.9646H53.1786C50.9867 44.9646 49.2071 43.2768 49.2071 41.1933V20.4426C49.2071 18.3576 50.9867 16.6667 53.1786 16.6667H75.0269Z" fill="#FFD633"/>
<path d="M27.9176 82V64.5455H34.3097C35.5483 64.5455 36.5739 64.75 37.3864 65.1591C38.1989 65.5625 38.8068 66.1108 39.2102 66.804C39.6136 67.4915 39.8153 68.267 39.8153 69.1307C39.8153 69.858 39.6818 70.4716 39.4148 70.9716C39.1477 71.4659 38.7898 71.8636 38.3409 72.1648C37.8977 72.4602 37.4091 72.6761 36.875 72.8125V72.983C37.4545 73.0114 38.0199 73.1989 38.571 73.5455C39.1278 73.8864 39.5881 74.3722 39.9517 75.0028C40.3153 75.6335 40.4972 76.4006 40.4972 77.304C40.4972 78.196 40.2869 78.9972 39.8665 79.7074C39.4517 80.4119 38.8097 80.9716 37.9403 81.3864C37.071 81.7955 35.9602 82 34.608 82H27.9176ZM30.5511 79.7415H34.3523C35.6136 79.7415 36.517 79.4972 37.0625 79.0085C37.608 78.5199 37.8807 77.9091 37.8807 77.1761C37.8807 76.625 37.7415 76.1193 37.4631 75.6591C37.1847 75.1989 36.7869 74.8324 36.2699 74.5597C35.7585 74.2869 35.1506 74.1506 34.446 74.1506H30.5511V79.7415ZM30.5511 72.0966H34.0795C34.6705 72.0966 35.2017 71.983 35.6733 71.7557C36.1506 71.5284 36.5284 71.2102 36.8068 70.8011C37.0909 70.3864 37.233 69.8977 37.233 69.3352C37.233 68.6136 36.9801 68.0085 36.4744 67.5199C35.9688 67.0312 35.1932 66.7869 34.1477 66.7869H30.5511V72.0966ZM44.7645 64.5455V82H42.2162V64.5455H44.7645ZM52.507 82.2642C51.2797 82.2642 50.2087 81.983 49.2939 81.4205C48.3791 80.858 47.6689 80.071 47.1632 79.0597C46.6575 78.0483 46.4047 76.8665 46.4047 75.5142C46.4047 74.1562 46.6575 72.9687 47.1632 71.9517C47.6689 70.9347 48.3791 70.1449 49.2939 69.5824C50.2087 69.0199 51.2797 68.7386 52.507 68.7386C53.7342 68.7386 54.8053 69.0199 55.72 69.5824C56.6348 70.1449 57.345 70.9347 57.8507 71.9517C58.3564 72.9687 58.6092 74.1562 58.6092 75.5142C58.6092 76.8665 58.3564 78.0483 57.8507 79.0597C57.345 80.071 56.6348 80.858 55.72 81.4205C54.8053 81.983 53.7342 82.2642 52.507 82.2642ZM52.5155 80.125C53.3109 80.125 53.97 79.9148 54.4928 79.4943C55.0155 79.0739 55.4018 78.5142 55.6518 77.8153C55.9075 77.1165 56.0354 76.3466 56.0354 75.5057C56.0354 74.6705 55.9075 73.9034 55.6518 73.2045C55.4018 72.5 55.0155 71.9347 54.4928 71.5085C53.97 71.0824 53.3109 70.8693 52.5155 70.8693C51.7143 70.8693 51.0496 71.0824 50.5212 71.5085C49.9984 71.9347 49.6092 72.5 49.3536 73.2045C49.1036 73.9034 48.9786 74.6705 48.9786 75.5057C48.9786 76.3466 49.1036 77.1165 49.3536 77.8153C49.6092 78.5142 49.9984 79.0739 50.5212 79.4943C51.0496 79.9148 51.7143 80.125 52.5155 80.125ZM65.7423 87.1818C64.7026 87.1818 63.8077 87.0455 63.0577 86.7727C62.3134 86.5 61.7054 86.1392 61.2338 85.6903C60.7622 85.2415 60.4099 84.75 60.177 84.2159L62.3673 83.3125C62.5207 83.5625 62.7253 83.8267 62.981 84.1051C63.2423 84.3892 63.5946 84.6307 64.0378 84.8295C64.4866 85.0284 65.0634 85.1278 65.7679 85.1278C66.7338 85.1278 67.5321 84.892 68.1628 84.4205C68.7935 83.9545 69.1088 83.2102 69.1088 82.1875V79.6136H68.9469C68.7935 79.892 68.5719 80.2017 68.2821 80.5426C67.998 80.8835 67.606 81.179 67.106 81.429C66.606 81.679 65.9554 81.804 65.1543 81.804C64.1202 81.804 63.1884 81.5625 62.3588 81.0795C61.5349 80.5909 60.8815 79.8722 60.3986 78.9233C59.9213 77.9687 59.6827 76.7955 59.6827 75.4034C59.6827 74.0114 59.9185 72.8182 60.3901 71.8239C60.8673 70.8295 61.5207 70.0682 62.3503 69.5398C63.1798 69.0057 64.1202 68.7386 65.1713 68.7386C65.9838 68.7386 66.6401 68.875 67.1401 69.1477C67.6401 69.4148 68.0293 69.7273 68.3077 70.0852C68.5918 70.4432 68.8105 70.7585 68.9639 71.0312H69.1514V68.9091H71.6486V82.2898C71.6486 83.4148 71.3872 84.3381 70.8645 85.0597C70.3418 85.7813 69.6344 86.3153 68.7423 86.6619C67.856 87.0085 66.856 87.1818 65.7423 87.1818ZM65.7168 79.6903C66.4497 79.6903 67.069 79.5199 67.5747 79.179C68.0861 78.8324 68.4724 78.3381 68.7338 77.696C69.0009 77.0483 69.1344 76.2727 69.1344 75.3693C69.1344 74.4886 69.0037 73.7131 68.7423 73.0426C68.481 72.3722 68.0974 71.8494 67.5918 71.4744C67.0861 71.0937 66.4611 70.9034 65.7168 70.9034C64.9497 70.9034 64.3105 71.1023 63.7991 71.5C63.2878 71.892 62.9014 72.4261 62.6401 73.1023C62.3844 73.7784 62.2565 74.5341 62.2565 75.3693C62.2565 76.2273 62.3872 76.9801 62.6486 77.6278C62.9099 78.2756 63.2963 78.7812 63.8077 79.1449C64.3247 79.5085 64.9611 79.6903 65.7168 79.6903Z" fill="white"/>
</g>
<defs>
<clipPath id="clip0_1_209">
<rect width="100" height="100" rx="24" fill="white"/>
</clipPath>
</defs>
</svg>
